<svg xmlns="http://www.w3.org/2000/svg" viewBox="0 0 818 126.75"><defs><style>.cls-1{fill:#ffc033;}.cls-2{fill:#f7931e;}.cls-3{fill:#ffd45a;}</style></defs><title>Asset 39</title><g id="Layer_2" data-name="Layer 2"><g id="Layer_1-2" data-name="Layer 1"><path class="cls-1" d="M818,26.75,788.5,47.47a10,10,0,1,0-13.42,9.43L729.76,88.74V27.25Z"/><path class="cls-1" d="M755.73,126.4a10,10,0,1,0-14.54-.09l-11.42-.06V64.76l88.23,62Z"/><rect class="cls-1" x="668" y="27.25" width="62.25" height="99"/><polygon class="cls-2" points="698 99.9 668 126.1 668 99.9 698 99.9"/><path class="cls-1" d="M88.24,27.25V88.74L42.92,56.9,29.5,47.47,0,26.75l69.06.39a10,10,0,1,0,16.94.1Z"/><path class="cls-1" d="M76.81,126.31l11.42-.06V64.76L0,126.75l62.27-.35"/><path class="cls-1" d="M87.74,27.25v99H150v-99ZM108.5,123.5a10,10,0,1,1,10-10A10,10,0,0,1,108.5,123.5Z"/><polygon class="cls-2" points="120 99.9 150 126.1 150 99.9 120 99.9"/><rect class="cls-3" x="120" width="578" height="100"/></g></g></svg>