<svg xmlns="http://www.w3.org/2000/svg" viewBox="0 0 108.97 61.21"><title>Asset 8</title><g id="Layer_2" data-name="Layer 2"><g id="Layer_1-2" data-name="Layer 1"><g id="Group-9"><path id="Fill-5" d="M10.44,61.21c0-.28,0-.57,0-.86,0-27.53,19.77-49.93,44.07-49.93s44.06,22.4,44.06,49.93c0,.29,0,.58,0,.86H109c0-.28,0-.57,0-.86C109,27.07,84.53,0,54.49,0S0,27.07,0,60.35c0,.29,0,.58,0,.86Z"/><path id="Fill-7" d="M29.22,61.21c0-.29,0-.57,0-.86,0-16,11.35-28.94,25.31-28.94s25.3,13,25.3,28.94c0,.29,0,.57,0,.86H90.2c0-.28,0-.57,0-.86,0-21.7-16-39.36-35.73-39.36S18.76,38.65,18.76,60.35c0,.29,0,.58,0,.86Z"/><path id="Fill-9" d="M48.31,61.21a7.88,7.88,0,0,1-.07-.86c0-4.2,2.8-7.61,6.25-7.61s6.25,3.41,6.25,7.61c0,.3-.05.58-.07.86H71.12c0-.28,0-.57,0-.86,0-10-7.48-18-16.67-18s-16.68,8.09-16.68,18c0,.29,0,.58,0,.86Z"/></g></g></g></svg>