<svg xmlns="http://www.w3.org/2000/svg" viewBox="0 0 126.87 103.81"><defs><style>.cls-1{fill:#f15a24;}.cls-2{fill:#fbb03b;}</style></defs><title>Asset 25</title><g id="Layer_2" data-name="Layer 2"><g id="Layer_1-2" data-name="Layer 1"><path d="M126.59,15.4l-.77-.65c-8.42-7.1-20.66-9.55-35.4-7.1a87.78,87.78,0,0,0-18,5.1C52.83-12.63,13,7.67,12.61,7.88l-1.24.64.44,9.31L0,20.05l8.55,82.59,63.11-4.51,47.14,5.68.65-6.2a33.6,33.6,0,0,1,4,2.28l3.47,2.5ZM12.45,98,4.75,23.59,12,22.23,15.47,94.4l2.62-.72c.31-.09,28.29-7.57,46.49.59ZM37.57,86.27a116.81,116.81,0,0,0-18,2.57l-3.7-77.7C22.5,8.06,54.1-5,69.49,16.15L69.69,92C61.81,87.39,51,85.46,37.57,86.27ZM114.93,99,77.35,94.43a56.25,56.25,0,0,1,37.92,1.31ZM94.75,87.32A62.18,62.18,0,0,0,74,90.93l-.2-74.07a84.87,84.87,0,0,1,17.39-4.93c9.09-1.5,21.73-1.71,31,5.53l.25,76.78A58.77,58.77,0,0,0,94.75,87.32Z"/><path class="cls-1" d="M115.27,95.74,114.93,99,77.35,94.43A56.25,56.25,0,0,1,115.27,95.74Z"/><path class="cls-2" d="M122.49,94.24a58.77,58.77,0,0,0-27.74-6.92A62.18,62.18,0,0,0,74,90.93l-.2-74.07a84.87,84.87,0,0,1,17.39-4.93c9.09-1.5,21.73-1.71,31,5.53Z"/><path class="cls-1" d="M64.58,94.27,12.45,98,4.75,23.59,12,22.23,15.47,94.4l2.62-.72C18.4,93.59,46.38,86.11,64.58,94.27Z"/><path class="cls-2" d="M69.69,92C61.81,87.39,51,85.46,37.57,86.27a116.81,116.81,0,0,0-18,2.57l-3.7-77.7C22.5,8.06,54.1-5,69.49,16.15Z"/></g></g></svg>