<svg xmlns="http://www.w3.org/2000/svg" viewBox="0 0 126.86 103.82"><defs><style>.cls-1{fill:#fff;}</style></defs><title>Asset 11</title><g id="Layer_2" data-name="Layer 2"><g id="Layer_1-2" data-name="Layer 1"><path class="cls-1" d="M126.86,102.39l-.28-87-.77-.65c-8.41-7.1-20.66-9.56-35.39-7.1a87.73,87.73,0,0,0-18,5.09C52.83-12.62,13,7.67,12.6,7.88l-1.23.65.44,9.31L0,20.06l8.54,82.59,63.12-4.51,47.13,5.68.66-6.2a35,35,0,0,1,4,2.27ZM69.48,16.16,69.68,92C61.81,87.39,51,85.47,37.57,86.28a115.64,115.64,0,0,0-18,2.56L15.85,11.15C22.49,8.07,54.09-5,69.48,16.16ZM12.44,98,4.74,23.6,12,22.23,15.46,94.4l2.62-.71c.31-.09,28.29-7.57,46.5.59Zm102.49,1L77.34,94.44a56.28,56.28,0,0,1,37.93,1.31ZM94.75,87.32A62.49,62.49,0,0,0,74,90.93l-.19-74.06a84.67,84.67,0,0,1,17.39-4.93c9.09-1.5,21.73-1.72,31,5.52l.24,76.79A58.67,58.67,0,0,0,94.75,87.32Z"/></g></g></svg>