<svg xmlns="http://www.w3.org/2000/svg" viewBox="0 0 114.66 107.86">
    <title>Asset 12</title>
    <g id="Layer_2" data-name="Layer 2">
        <g id="Layer_1-2" data-name="Layer 1">
            <path d="M114.65,50.33A57.12,57.12,0,0,0,90,3.29L89.53,3,58.37.1V.22L57.53,0,50.79,33.12,41,7.6,23.71,7l-.13-.31L21.33,8.49A56.51,56.51,0,0,0,0,53.51c0,30,21.82,54.35,48.63,54.35,1.36,0,2.71-.08,4-.2a260.28,260.28,0,0,0,33.89-3.13l.35-.06.31-.16C110.3,92.12,114.87,68.21,114.65,50.33ZM38,11.86,49.12,40.93l.08,0-3.67,18-20-47.5ZM4.36,53.47a52.14,52.14,0,0,1,17.46-39.7L47,73.63,60.87,5.43C79.87,11.52,93,30.94,93,53.51c0,26.1-17.83,47.59-40.46,49.8-2.8,0-5.59,0-8.31-.1v0C21.85,100.72,4.36,79.37,4.36,53.47Zm81.15,46.82c-1.47.23-7.48,1.16-15.32,1.94,16-8.9,27.12-27.39,27.12-48.72,0-20.44-10-38.5-25.39-47.79L88,7.2A52.76,52.76,0,0,1,110.3,50.35C110.6,74.49,102.26,91.29,85.51,100.29Z"/>
            <path d="M46.07,90a8.82,8.82,0,0,0,5.86-2.46c2-1.84.22-3.64-2.25-2.26S46,87.25,43.1,86.64c-2.53-.53-3.43-1.25-4.22.46S42.24,90,46.07,90Z"/>
            <path d="M77.75,58.05a2.65,2.65,0,0,0,1.66-2.5,60.57,60.57,0,0,0,.9-13.17c-.54-3.27-3.83-2.55-5-1.08s-2.17,14.61-.54,16.05A2.64,2.64,0,0,0,77.75,58.05Z"/>
            <path d="M14.83,45.3a31.08,31.08,0,0,0,0,6.68c.37,4.08.55,8.71,2.75,9s2.17-9.28.91-13.49S14.83,45.3,14.83,45.3Z"/>
        </g>
    </g>
</svg>
