<svg xmlns="http://www.w3.org/2000/svg" viewBox="0 0 303.01 90.27"><defs><style>.cls-1{fill:#fff;stroke:#000;stroke-miterlimit:10;stroke-width:0.5px;}</style></defs><title>Asset 29</title><g id="Layer_2" data-name="Layer 2"><g id="Layer_1-2" data-name="Layer 1"><path class="cls-1" d="M146.79,74.32c5.08-5.9,19.42-34.5,7.43-40.33-18.89-9.19-49.15,30.65-58.08,43.27C100,71.78,98.56,65,93.39,62.16s-11.28.14-16.17,3.3a20.93,20.93,0,0,0-8.75,13.05c5-2.53-6.51-21.75-31-9.7-13.63,6.71-15,17.7-37.42,21H143.79"/><path class="cls-1" d="M131.19,89.81H257.51l45.22.21c1.16-1.15-36.13-3-33.87-8.81s7.47-14.33,3.28-19.31c-5.54-6.6-18.32-6.7-26.6-2.35S232.39,71.31,227.88,78.4C233.93,66,240.08,53,239,39.68A33.37,33.37,0,0,0,211.08,10C191.76,7,174.42,20.34,165,34.22s-18.88,23.92-30.76,40.1"/><ellipse class="cls-1" cx="111.77" cy="10.69" rx="12.98" ry="10.44"/></g></g></svg>