<svg xmlns="http://www.w3.org/2000/svg" viewBox="0 0 341.21 83.51"><defs><style>.cls-1{fill:#fff;stroke:#000;stroke-miterlimit:10;stroke-width:0.5px;}</style></defs><title>Asset 28</title><g id="Layer_2" data-name="Layer 2"><g id="Layer_1-2" data-name="Layer 1"><path class="cls-1" d="M269.94,82.89V61.82c7.41-6,15-12.31,19.59-20.71s4-27.34-6.28-36.34C272.54-4.67,243,2.58,230.37,9.25,194.09,28.45,182.3,36.82,146.89,62c5.82-3.72,11.83-7.63,15.45-13.52s4-14.34-.91-19.14c-6.76-6.55-26.21-2.81-34.64,1.36-25.55,12.63-26.86,27.8-68.33,38V83.26"/><path class="cls-1" d="M71,83.26H340.71c-7.34-9.76-43.25-2.74-40.76-13.7,1.66-7.3,6.2-14.65,2.31-21.05-4.79-7.9-16.34-9.24-24.75-5.41S262.79,58,246.24,66.63"/><circle class="cls-1" cx="328.92" cy="32.39" r="11.79"/><circle class="cls-1" cx="328.92" cy="63.89" r="5.89"/><path class="cls-1" d="M71,68.7c4.38-2.51,8.94-5.19,11.56-9.5S85,48.45,80.82,45.59c-4.72-3.25-11.08-.28-16,2.68-20,12.08-22.27,28.25-64.8,35H71"/></g></g></svg>