<svg xmlns="http://www.w3.org/2000/svg" viewBox="0 0 124.86 113.41"><title>Asset 24</title><g id="Layer_2" data-name="Layer 2"><g id="Layer_1-2" data-name="Layer 1"><path d="M124.86,3.71l-3.5-1.21a24.56,24.56,0,0,0-26.1,6.67c-2.11,2-6,6.88-11.65,14.45-.46.62-.93,1.25-1.4,1.9-2.7,3.66-5.64,7.74-8.75,12.13-1,1.45-2,2.8-2.82,4l-1.06,1.52a10,10,0,0,0-1.19,10,.67.67,0,0,0,.06.12c-4.42.59-7.93,5.15-9.5,7.21l-2.57-2.74,0,0A10.31,10.31,0,0,0,51.83,55c3.92-4.17,6.55-9.25,4.12-15.21C53.73,34.36,48.59,29.07,34.79,18h0A109.4,109.4,0,0,0,12.07,4.25C9.3,3,6.62,1.94,4.32,1.18L2.81.71.32,0,.05,2.58c-.51,4.77,3.24,24.76,9.5,38.51,6.8,14.51,13.37,22.06,20.68,23.77a14.5,14.5,0,0,0,3.21.37,17.33,17.33,0,0,0,8-2.13,15.86,15.86,0,0,0,2.84,7.05,35.1,35.1,0,0,0,2.29,3.11c.6.73,1,1.27,1.42,1.66l0,0h0l.37.43L31,99.87a8.09,8.09,0,0,0-1.64,6.28,8.6,8.6,0,0,0,3.76,5.8,8.25,8.25,0,0,0,4.74,1.46A10.72,10.72,0,0,0,46.14,109c1.75-2.25,6.55-9,14.25-20.08l15.14,17.1c2.64,3.33,6.08,5.35,9.45,5.57l.6,0a8.64,8.64,0,0,0,6.16-2.56l.24-.29c3.18-4.43,3-8.32-.74-13-2-2.58-8.81-10.07-20.15-22.27l2.83-4.1c2.58-4.1,3.55-7.43,3-10.18.25,0,.51.05.76.05a10.18,10.18,0,0,0,8.1-4l20.13-26.56h0c6.86-9.13,11.84-12.66,14.81-14l3.33-1.52-5.28-4ZM42.7,106.36c-2.27,2.93-5.38,3.22-7.17,2a4.35,4.35,0,0,1-1.91-2.89,3.85,3.85,0,0,1,.83-3l15.9-22.35,5.89,7.17C48.91,97.81,44.36,104.22,42.7,106.36ZM31.22,60.62C25.4,59.26,19.6,52.27,13.51,39.27c-5.25-11.51-8.34-26.79-9-33.42,1.79.65,3.76,1.46,5.79,2.38a104.84,104.84,0,0,1,21.79,13.2c13,10.38,18,15.43,19.84,20,1.36,3.32,1.35,7.4-7.85,14.74C39.21,60,35,61.5,31.22,60.62Zm16.69,7.15c-2.08-3.19-2.4-5.27-2-6.15a4.05,4.05,0,0,1,2.94-2.55,5,5,0,0,1,4.39,1.7Q71.94,80.72,80.76,90.44L73.35,97,51.26,72.08h0c-.12-.14-1-1.11-1.34-1.58A30.51,30.51,0,0,1,47.91,67.77Zm40.64,38.32a4.29,4.29,0,0,1-3.29,1.18c-2.13-.13-4.5-1.62-6.35-4l-2.67-3,7.44-6.6c2,2.25,3.41,3.87,4.15,4.8C90.54,101.92,90.27,103.65,88.55,106.09ZM70.29,67l-.62.89-6.11-6.19C68,56.48,70,57.52,70.87,58a3,3,0,0,1,1.76,1.91C72.92,61,72.74,63.11,70.29,67Zm45.56-54.59c-4.17,2.74-8.67,7.31-13.42,13.64L82.3,52.62a5.78,5.78,0,0,1-9.91-1.17,5.73,5.73,0,0,1,.71-5.72l1.11-1.58,2.8-4c3.1-4.37,6-8.43,8.7-12.07l1.4-1.89C94,17,97,13.52,98.31,12.27l.11-.11A20.23,20.23,0,0,1,116.1,5.7l-4.19,3.75Z"/></g></g></svg>