<svg xmlns="http://www.w3.org/2000/svg" viewBox="0 0 78.91 78.91"><defs><style>.cls-1{fill:#fff339;}.cls-1,.cls-3{stroke:#000;stroke-miterlimit:10;stroke-width:2.3px;}.cls-2{fill:#fff;}.cls-3{fill:none;}</style></defs><title>Asset 30</title><g id="Layer_2" data-name="Layer 2"><g id="Layer_1-2" data-name="Layer 1"><circle class="cls-1" cx="39.45" cy="39.45" r="38.3"/><line class="cls-2" x1="32.24" y1="23.09" x2="16.77" y2="34.02"/><path d="M32.24,23.09a13.43,13.43,0,0,1-2.57,4.57,18.61,18.61,0,0,1-7.73,5.48,13.52,13.52,0,0,1-5.17.88,13.58,13.58,0,0,1,2.56-4.57A18.44,18.44,0,0,1,27.07,24,13.74,13.74,0,0,1,32.24,23.09Z"/><line class="cls-2" x1="29.97" y1="36.3" x2="19.04" y2="20.82"/><path d="M30,36.3a13.87,13.87,0,0,1-4.57-2.57,18.48,18.48,0,0,1-3.24-3.51A17.79,17.79,0,0,1,19.93,26,13.48,13.48,0,0,1,19,20.82a13.58,13.58,0,0,1,4.58,2.57,18.16,18.16,0,0,1,3.23,3.51,18.55,18.55,0,0,1,2.23,4.23A13.87,13.87,0,0,1,30,36.3Z"/><line class="cls-2" x1="64.32" y1="28.61" x2="48.85" y2="39.54"/><path d="M64.32,28.61a13.58,13.58,0,0,1-2.57,4.58,18.53,18.53,0,0,1-3.51,3.24A18.27,18.27,0,0,1,54,38.66a13.48,13.48,0,0,1-5.17.88A13.68,13.68,0,0,1,51.41,35a18.39,18.39,0,0,1,7.75-5.46A13.65,13.65,0,0,1,64.32,28.61Z"/><line class="cls-2" x1="62.05" y1="41.82" x2="51.12" y2="26.34"/><path d="M62.05,41.82a13.87,13.87,0,0,1-4.57-2.57A18.42,18.42,0,0,1,52,31.51a13.48,13.48,0,0,1-.89-5.17,13.48,13.48,0,0,1,4.58,2.57,17.85,17.85,0,0,1,3.23,3.51,18.55,18.55,0,0,1,2.23,4.23A13.71,13.71,0,0,1,62.05,41.82Z"/><path class="cls-3" d="M12.76,66.94a21.81,21.81,0,0,1,43,7.4"/></g></g></svg>