<svg xmlns="http://www.w3.org/2000/svg" viewBox="0 0 90.55 90.55"><title>Asset 32</title><g id="Layer_2" data-name="Layer 2"><g id="Layer_1-2" data-name="Layer 1"><path d="M84.21,22.18A45.27,45.27,0,0,0,1.42,34.11,45.27,45.27,0,1,0,84.21,22.18ZM7.53,67.71A43.94,43.94,0,0,1,45.21,1.36,44.29,44.29,0,0,1,56.13,2.74a43.86,43.86,0,0,1,30.92,56A29,29,0,0,0,37.12,88.4,43.8,43.8,0,0,1,7.53,67.71ZM67.71,83a43.72,43.72,0,0,1-29.34,5.59l.33-.2A27.69,27.69,0,0,1,86.32,60.15l.33-.19A43.69,43.69,0,0,1,67.71,83Z"/><rect x="13.73" y="45.73" width="5.42" height="5.42" transform="translate(-34.56 52.4) rotate(-75.7)"/><rect x="24.23" y="48.4" width="5.42" height="5.42" transform="translate(-29.25 64.59) rotate(-75.7)"/><rect x="20.31" y="41.81" width="5.42" height="5.42" transform="translate(-25.81 55.84) rotate(-75.7)"/><rect x="17.64" y="52.31" width="5.42" height="5.42" transform="translate(-38 61.15) rotate(-75.7)"/><rect x="52.56" y="22.66" width="5.42" height="5.42" transform="translate(17.03 72.67) rotate(-75.7)"/><rect x="63.06" y="25.34" width="5.42" height="5.42" transform="translate(22.35 84.86) rotate(-75.7)"/><rect x="59.15" y="18.75" width="5.42" height="5.42" transform="translate(25.78 76.11) rotate(-75.7)"/><rect x="56.48" y="29.25" width="5.42" height="5.42" transform="translate(13.59 81.42) rotate(-75.7)"/></g></g></svg>