<svg xmlns="http://www.w3.org/2000/svg" viewBox="0 0 80.86 85.56"><title>Asset 7</title><g id="Layer_2" data-name="Layer 2"><g id="Layer_1-2" data-name="Layer 1"><g id="Group-8"><path id="Fill-1" d="M40.43,75.35a30.24,30.24,0,0,1-27.9-41.86L26.14,44.36,40.62,19.6l15.91,25,11.84-11A30.24,30.24,0,0,1,40.43,75.35M74,22.52l-3.33-4.94L58.56,28.77,40.25,0l-17,29L9.76,18.2,6.68,22.86A40.43,40.43,0,1,0,80.86,45.12,40.21,40.21,0,0,0,74,22.52"/><path id="Fill-3" d="M43.29,46.36l-2.85-1.93-2.86,1.92c-9,6-12.06,16-12.5,17.53H36a23.69,23.69,0,0,1,4.48-6.67,25.31,25.31,0,0,1,5.16,6.67H56.52c-3-10.48-12.81-17.24-13.23-17.52"/></g></g></g></svg>