<svg xmlns="http://www.w3.org/2000/svg" viewBox="0 0 102.1 386.74"><defs><style>.cls-1{fill:#ffe133;}.cls-1,.cls-2,.cls-3{stroke:#000;stroke-miterlimit:10;stroke-width:0.45px;}.cls-2{fill:#fff;}.cls-3{fill:#ffc033;}</style></defs><title>Asset 37</title><g id="Layer_2" data-name="Layer 2"><g id="Layer_1-2" data-name="Layer 1"><rect class="cls-1" x="81.55" y="0.22" width="20.33" height="20.33" transform="translate(102.1 -81.32) rotate(90)"/><rect class="cls-1" x="81.55" y="20.56" width="20.33" height="20.33" transform="translate(122.44 -60.99) rotate(90)"/><rect class="cls-2" x="81.55" y="40.89" width="20.33" height="20.33" transform="translate(142.77 -40.66) rotate(90)"/><rect class="cls-1" x="81.55" y="61.22" width="20.33" height="20.33" transform="translate(163.1 -20.33) rotate(90)"/><rect class="cls-1" x="81.55" y="81.55" width="20.33" height="20.33" transform="translate(183.43 0) rotate(90)"/><rect class="cls-1" x="81.55" y="101.88" width="20.33" height="20.33" transform="translate(203.76 20.33) rotate(90)"/><rect class="cls-1" x="81.55" y="122.21" width="20.33" height="20.33" transform="translate(224.09 40.66) rotate(90)"/><rect class="cls-1" x="81.55" y="142.54" width="20.33" height="20.33" transform="translate(244.42 60.99) rotate(90)"/><rect class="cls-1" x="81.55" y="162.87" width="20.33" height="20.33" transform="translate(264.75 81.32) rotate(90)"/><rect class="cls-1" x="81.55" y="183.2" width="20.33" height="20.33" transform="translate(285.08 101.65) rotate(90)"/><rect class="cls-1" x="81.55" y="203.53" width="20.33" height="20.33" transform="translate(305.41 121.99) rotate(90)"/><rect class="cls-2" x="81.55" y="223.86" width="20.33" height="20.33" transform="translate(325.74 142.32) rotate(90)"/><rect class="cls-1" x="81.55" y="244.2" width="20.33" height="20.33" transform="translate(346.07 162.65) rotate(90)"/><rect class="cls-1" x="81.55" y="264.53" width="20.33" height="20.33" transform="translate(366.41 182.98) rotate(90)"/><rect class="cls-1" x="81.55" y="284.86" width="20.33" height="20.33" transform="translate(386.74 203.31) rotate(90)"/><rect class="cls-2" x="81.55" y="305.19" width="20.33" height="20.33" transform="translate(407.07 223.64) rotate(90)"/><rect class="cls-1" x="81.55" y="325.52" width="20.33" height="20.33" transform="translate(427.4 243.97) rotate(90)"/><rect class="cls-1" x="81.55" y="345.85" width="20.33" height="20.33" transform="translate(447.73 264.3) rotate(90)"/><rect class="cls-1" x="81.55" y="366.18" width="20.33" height="20.33" transform="translate(468.06 284.63) rotate(90)"/><rect class="cls-1" x="61.22" y="0.22" width="20.33" height="20.33" transform="translate(81.77 -60.99) rotate(90)"/><rect class="cls-1" x="61.22" y="20.56" width="20.33" height="20.33" transform="translate(102.1 -40.66) rotate(90)"/><rect class="cls-1" x="61.22" y="40.89" width="20.33" height="20.33" transform="translate(122.44 -20.33) rotate(90)"/><rect class="cls-2" x="61.22" y="61.22" width="20.33" height="20.33" transform="translate(142.77 0) rotate(90)"/><rect class="cls-1" x="61.22" y="81.55" width="20.33" height="20.33" transform="translate(163.1 20.33) rotate(90)"/><rect class="cls-1" x="61.22" y="101.88" width="20.33" height="20.33" transform="translate(183.43 40.66) rotate(90)"/><rect class="cls-1" x="61.22" y="122.21" width="20.33" height="20.33" transform="translate(203.76 60.99) rotate(90)"/><rect class="cls-1" x="61.22" y="142.54" width="20.33" height="20.33" transform="translate(224.09 81.32) rotate(90)"/><rect class="cls-1" x="61.22" y="162.87" width="20.33" height="20.33" transform="translate(244.42 101.65) rotate(90)"/><rect class="cls-1" x="61.22" y="183.2" width="20.33" height="20.33" transform="translate(264.75 121.99) rotate(90)"/><rect class="cls-1" x="61.22" y="203.53" width="20.33" height="20.33" transform="translate(285.08 142.32) rotate(90)"/><rect class="cls-1" x="61.22" y="223.86" width="20.33" height="20.33" transform="translate(305.41 162.65) rotate(90)"/><rect class="cls-1" x="61.22" y="244.2" width="20.33" height="20.33" transform="translate(325.74 182.98) rotate(90)"/><rect class="cls-1" x="61.22" y="264.53" width="20.33" height="20.33" transform="translate(346.07 203.31) rotate(90)"/><rect class="cls-1" x="61.22" y="284.86" width="20.33" height="20.33" transform="translate(366.41 223.64) rotate(90)"/><rect class="cls-1" x="61.22" y="305.19" width="20.33" height="20.33" transform="translate(386.74 243.97) rotate(90)"/><rect class="cls-1" x="61.22" y="325.52" width="20.33" height="20.33" transform="translate(407.07 264.3) rotate(90)"/><rect class="cls-2" x="61.22" y="345.85" width="20.33" height="20.33" transform="translate(427.4 284.63) rotate(90)"/><rect class="cls-1" x="61.22" y="366.18" width="20.33" height="20.33" transform="translate(447.73 304.96) rotate(90)"/><rect class="cls-3" x="40.89" y="0.22" width="20.33" height="20.33" transform="translate(61.44 -40.66) rotate(90)"/><rect class="cls-3" x="40.89" y="20.56" width="20.33" height="20.33" transform="translate(81.77 -20.33) rotate(90)"/><rect class="cls-3" x="40.89" y="40.89" width="20.33" height="20.33" transform="translate(102.1 0) rotate(90)"/><rect class="cls-3" x="40.89" y="61.22" width="20.33" height="20.33" transform="translate(122.44 20.33) rotate(90)"/><rect class="cls-3" x="40.89" y="81.55" width="20.33" height="20.33" transform="translate(142.77 40.66) rotate(90)"/><rect class="cls-3" x="40.89" y="101.88" width="20.33" height="20.33" transform="translate(163.1 60.99) rotate(90)"/><rect class="cls-3" x="40.89" y="122.21" width="20.33" height="20.33" transform="translate(183.43 81.32) rotate(90)"/><rect class="cls-3" x="40.89" y="142.54" width="20.33" height="20.33" transform="translate(203.76 101.65) rotate(90)"/><rect class="cls-3" x="40.89" y="162.87" width="20.33" height="20.33" transform="translate(224.09 121.99) rotate(90)"/><rect class="cls-3" x="40.89" y="183.2" width="20.33" height="20.33" transform="translate(244.42 142.32) rotate(90)"/><rect class="cls-3" x="40.89" y="203.53" width="20.33" height="20.33" transform="translate(264.75 162.65) rotate(90)"/><rect class="cls-3" x="40.89" y="223.86" width="20.33" height="20.33" transform="translate(285.08 182.98) rotate(90)"/><rect class="cls-3" x="40.89" y="244.2" width="20.33" height="20.33" transform="translate(305.41 203.31) rotate(90)"/><rect class="cls-3" x="40.89" y="264.53" width="20.33" height="20.33" transform="translate(325.74 223.64) rotate(90)"/><rect class="cls-3" x="40.89" y="284.86" width="20.33" height="20.33" transform="translate(346.07 243.97) rotate(90)"/><rect class="cls-3" x="40.89" y="305.19" width="20.33" height="20.33" transform="translate(366.41 264.3) rotate(90)"/><rect class="cls-3" x="40.89" y="325.52" width="20.33" height="20.33" transform="translate(386.74 284.63) rotate(90)"/><rect class="cls-3" x="40.89" y="345.85" width="20.33" height="20.33" transform="translate(407.07 304.96) rotate(90)"/><rect class="cls-3" x="40.89" y="366.18" width="20.33" height="20.33" transform="translate(427.4 325.29) rotate(90)"/><rect class="cls-3" x="20.56" y="0.22" width="20.33" height="20.33" transform="translate(41.11 -20.33) rotate(90)"/><rect class="cls-3" x="20.56" y="20.56" width="20.33" height="20.33" transform="translate(61.44 0) rotate(90)"/><rect class="cls-3" x="20.56" y="40.89" width="20.33" height="20.33" transform="translate(81.77 20.33) rotate(90)"/><rect class="cls-3" x="20.56" y="61.22" width="20.33" height="20.33" transform="translate(102.1 40.66) rotate(90)"/><rect class="cls-3" x="20.56" y="81.55" width="20.33" height="20.33" transform="translate(122.44 60.99) rotate(90)"/><rect class="cls-3" x="20.56" y="101.88" width="20.33" height="20.33" transform="translate(142.77 81.32) rotate(90)"/><rect class="cls-3" x="20.56" y="122.21" width="20.33" height="20.33" transform="translate(163.1 101.65) rotate(90)"/><rect class="cls-3" x="20.56" y="142.54" width="20.33" height="20.33" transform="translate(183.43 121.99) rotate(90)"/><rect class="cls-3" x="20.56" y="162.87" width="20.33" height="20.33" transform="translate(203.76 142.32) rotate(90)"/><rect class="cls-3" x="20.56" y="183.2" width="20.33" height="20.33" transform="translate(224.09 162.65) rotate(90)"/><rect class="cls-3" x="20.56" y="203.53" width="20.33" height="20.33" transform="translate(244.42 182.98) rotate(90)"/><rect class="cls-3" x="20.56" y="223.86" width="20.33" height="20.33" transform="translate(264.75 203.31) rotate(90)"/><rect class="cls-3" x="20.56" y="244.2" width="20.33" height="20.33" transform="translate(285.08 223.64) rotate(90)"/><rect class="cls-3" x="20.56" y="264.53" width="20.33" height="20.33" transform="translate(305.41 243.97) rotate(90)"/><rect class="cls-3" x="20.56" y="284.86" width="20.33" height="20.33" transform="translate(325.74 264.3) rotate(90)"/><rect class="cls-3" x="20.56" y="305.19" width="20.33" height="20.33" transform="translate(346.07 284.63) rotate(90)"/><rect class="cls-3" x="20.56" y="325.52" width="20.33" height="20.33" transform="translate(366.41 304.96) rotate(90)"/><rect class="cls-3" x="20.56" y="345.85" width="20.33" height="20.33" transform="translate(386.74 325.29) rotate(90)"/><rect class="cls-3" x="20.56" y="366.18" width="20.33" height="20.33" transform="translate(407.07 345.62) rotate(90)"/><rect class="cls-3" x="0.22" y="0.22" width="20.33" height="20.33" transform="translate(20.78 0) rotate(90)"/><rect class="cls-3" x="0.22" y="20.56" width="20.33" height="20.33" transform="translate(41.11 20.33) rotate(90)"/><rect class="cls-3" x="0.22" y="40.89" width="20.33" height="20.33" transform="translate(61.44 40.66) rotate(90)"/><rect class="cls-3" x="0.22" y="61.22" width="20.33" height="20.33" transform="translate(81.77 60.99) rotate(90)"/><rect class="cls-3" x="0.22" y="81.55" width="20.33" height="20.33" transform="translate(102.1 81.32) rotate(90)"/><rect class="cls-3" x="0.22" y="101.88" width="20.33" height="20.33" transform="translate(122.44 101.65) rotate(90)"/><rect class="cls-3" x="0.22" y="122.21" width="20.33" height="20.33" transform="translate(142.77 121.99) rotate(90)"/><rect class="cls-3" x="0.22" y="142.54" width="20.33" height="20.33" transform="translate(163.1 142.32) rotate(90)"/><rect class="cls-3" x="0.22" y="162.87" width="20.33" height="20.33" transform="translate(183.43 162.65) rotate(90)"/><rect class="cls-3" x="0.22" y="183.2" width="20.33" height="20.33" transform="translate(203.76 182.98) rotate(90)"/><rect class="cls-3" x="0.22" y="203.53" width="20.33" height="20.33" transform="translate(224.09 203.31) rotate(90)"/><rect class="cls-3" x="0.22" y="223.86" width="20.33" height="20.33" transform="translate(244.42 223.64) rotate(90)"/><rect class="cls-3" x="0.22" y="244.2" width="20.33" height="20.33" transform="translate(264.75 243.97) rotate(90)"/><rect class="cls-3" x="0.22" y="264.53" width="20.33" height="20.33" transform="translate(285.08 264.3) rotate(90)"/><rect class="cls-3" x="0.22" y="284.86" width="20.33" height="20.33" transform="translate(305.41 284.63) rotate(90)"/><rect class="cls-3" x="0.22" y="305.19" width="20.33" height="20.33" transform="translate(325.74 304.96) rotate(90)"/><rect class="cls-3" x="0.22" y="325.52" width="20.33" height="20.33" transform="translate(346.07 325.29) rotate(90)"/><rect class="cls-3" x="0.22" y="345.85" width="20.33" height="20.33" transform="translate(366.41 345.62) rotate(90)"/><rect class="cls-3" x="0.22" y="366.18" width="20.33" height="20.33" transform="translate(386.74 365.96) rotate(90)"/></g></g></svg>