<svg xmlns="http://www.w3.org/2000/svg" viewBox="0 0 102.76 305.55"><defs><style>.cls-1{fill:#fff;stroke:#000;}</style></defs><title>Asset 36</title><g id="Layer_2" data-name="Layer 2"><g id="Layer_1-2" data-name="Layer 1"><rect class="cls-1" x="81.91" y="81.91" width="20.35" height="20.35" transform="translate(184.18 184.18) rotate(180)"/><rect class="cls-1" x="61.56" y="81.91" width="20.35" height="20.35" transform="translate(143.47 184.18) rotate(180)"/><rect class="cls-1" x="41.21" y="81.91" width="20.35" height="20.35" transform="translate(102.76 184.18) rotate(180)"/><rect class="cls-1" x="20.85" y="81.91" width="20.35" height="20.35" transform="translate(62.06 184.18) rotate(180)"/><rect class="cls-1" x="0.5" y="81.91" width="20.35" height="20.35" transform="translate(21.35 184.18) rotate(180)"/><rect class="cls-1" x="81.91" y="61.56" width="20.35" height="20.35" transform="translate(184.18 143.47) rotate(180)"/><rect class="cls-1" x="61.56" y="61.56" width="20.35" height="20.35" transform="translate(143.47 143.47) rotate(180)"/><rect class="cls-1" x="41.21" y="61.56" width="20.35" height="20.35" transform="translate(102.76 143.47) rotate(180)"/><rect class="cls-1" x="20.85" y="61.56" width="20.35" height="20.35" transform="translate(62.06 143.47) rotate(180)"/><rect class="cls-1" x="0.5" y="61.56" width="20.35" height="20.35" transform="translate(21.35 143.47) rotate(180)"/><rect class="cls-1" x="81.91" y="41.21" width="20.35" height="20.35" transform="translate(184.18 102.76) rotate(180)"/><rect class="cls-1" x="61.56" y="41.21" width="20.35" height="20.35" transform="translate(143.47 102.76) rotate(180)"/><rect class="cls-1" x="41.21" y="41.21" width="20.35" height="20.35" transform="translate(102.76 102.76) rotate(180)"/><rect class="cls-1" x="20.85" y="41.21" width="20.35" height="20.35" transform="translate(62.06 102.76) rotate(180)"/><rect class="cls-1" x="0.5" y="41.21" width="20.35" height="20.35" transform="translate(21.35 102.76) rotate(180)"/><rect class="cls-1" x="81.91" y="20.85" width="20.35" height="20.35" transform="translate(184.18 62.06) rotate(180)"/><rect class="cls-1" x="61.56" y="20.85" width="20.35" height="20.35" transform="translate(143.47 62.06) rotate(180)"/><rect class="cls-1" x="41.21" y="20.85" width="20.35" height="20.35" transform="translate(102.76 62.06) rotate(180)"/><rect class="cls-1" x="20.85" y="20.85" width="20.35" height="20.35" transform="translate(62.06 62.06) rotate(180)"/><rect class="cls-1" x="0.5" y="20.85" width="20.35" height="20.35" transform="translate(21.35 62.06) rotate(180)"/><rect class="cls-1" x="81.91" y="0.5" width="20.35" height="20.35" transform="translate(184.18 21.35) rotate(180)"/><rect class="cls-1" x="61.56" y="0.5" width="20.35" height="20.35" transform="translate(143.47 21.35) rotate(180)"/><rect class="cls-1" x="41.21" y="0.5" width="20.35" height="20.35" transform="translate(102.76 21.35) rotate(180)"/><rect class="cls-1" x="20.85" y="0.5" width="20.35" height="20.35" transform="translate(62.06 21.35) rotate(180)"/><rect class="cls-1" x="0.5" y="0.5" width="20.35" height="20.35" transform="translate(21.35 21.35) rotate(180)"/><rect class="cls-1" x="81.91" y="183.31" width="20.35" height="20.35" transform="translate(184.18 386.97) rotate(180)"/><rect class="cls-1" x="61.56" y="183.31" width="20.35" height="20.35" transform="translate(143.47 386.97) rotate(180)"/><rect class="cls-1" x="41.21" y="183.31" width="20.35" height="20.35" transform="translate(102.76 386.97) rotate(180)"/><rect class="cls-1" x="20.85" y="183.31" width="20.35" height="20.35" transform="translate(62.06 386.97) rotate(180)"/><rect class="cls-1" x="0.5" y="183.31" width="20.35" height="20.35" transform="translate(21.35 386.97) rotate(180)"/><rect class="cls-1" x="81.91" y="162.95" width="20.35" height="20.35" transform="translate(184.18 346.26) rotate(180)"/><rect class="cls-1" x="61.56" y="162.95" width="20.35" height="20.35" transform="translate(143.47 346.26) rotate(180)"/><rect class="cls-1" x="41.21" y="162.95" width="20.35" height="20.35" transform="translate(102.76 346.26) rotate(180)"/><rect class="cls-1" x="20.85" y="162.95" width="20.35" height="20.35" transform="translate(62.06 346.26) rotate(180)"/><rect class="cls-1" x="0.5" y="162.95" width="20.35" height="20.35" transform="translate(21.35 346.26) rotate(180)"/><rect class="cls-1" x="81.91" y="142.6" width="20.35" height="20.35" transform="translate(184.18 305.55) rotate(180)"/><rect class="cls-1" x="61.56" y="142.6" width="20.35" height="20.35" transform="translate(143.47 305.55) rotate(180)"/><rect class="cls-1" x="41.21" y="142.6" width="20.35" height="20.35" transform="translate(102.76 305.55) rotate(180)"/><rect class="cls-1" x="20.85" y="142.6" width="20.35" height="20.35" transform="translate(62.06 305.55) rotate(180)"/><rect class="cls-1" x="0.5" y="142.6" width="20.35" height="20.35" transform="translate(21.35 305.55) rotate(180)"/><rect class="cls-1" x="81.91" y="122.25" width="20.35" height="20.35" transform="translate(184.18 264.85) rotate(180)"/><rect class="cls-1" x="61.56" y="122.25" width="20.35" height="20.35" transform="translate(143.47 264.85) rotate(180)"/><rect class="cls-1" x="41.21" y="122.25" width="20.35" height="20.35" transform="translate(102.76 264.85) rotate(180)"/><rect class="cls-1" x="20.85" y="122.25" width="20.35" height="20.35" transform="translate(62.06 264.85) rotate(180)"/><rect class="cls-1" x="0.5" y="122.25" width="20.35" height="20.35" transform="translate(21.35 264.85) rotate(180)"/><rect class="cls-1" x="81.91" y="101.89" width="20.35" height="20.35" transform="translate(184.18 224.14) rotate(180)"/><rect class="cls-1" x="61.56" y="101.89" width="20.35" height="20.35" transform="translate(143.47 224.14) rotate(180)"/><rect class="cls-1" x="41.21" y="101.89" width="20.35" height="20.35" transform="translate(102.76 224.14) rotate(180)"/><rect class="cls-1" x="20.85" y="101.89" width="20.35" height="20.35" transform="translate(62.06 224.14) rotate(180)"/><rect class="cls-1" x="0.5" y="101.89" width="20.35" height="20.35" transform="translate(21.35 224.14) rotate(180)"/><rect class="cls-1" x="81.91" y="284.7" width="20.35" height="20.35" transform="translate(184.18 589.76) rotate(180)"/><rect class="cls-1" x="61.56" y="284.7" width="20.35" height="20.35" transform="translate(143.47 589.76) rotate(180)"/><rect class="cls-1" x="41.21" y="284.7" width="20.35" height="20.35" transform="translate(102.76 589.76) rotate(180)"/><rect class="cls-1" x="20.85" y="284.7" width="20.35" height="20.35" transform="translate(62.06 589.76) rotate(180)"/><rect class="cls-1" x="0.5" y="284.7" width="20.35" height="20.35" transform="translate(21.35 589.76) rotate(180)"/><rect class="cls-1" x="81.91" y="264.35" width="20.35" height="20.35" transform="translate(184.18 549.05) rotate(180)"/><rect class="cls-1" x="61.56" y="264.35" width="20.35" height="20.35" transform="translate(143.47 549.05) rotate(180)"/><rect class="cls-1" x="41.21" y="264.35" width="20.35" height="20.35" transform="translate(102.76 549.05) rotate(180)"/><rect class="cls-1" x="20.85" y="264.35" width="20.35" height="20.35" transform="translate(62.06 549.05) rotate(180)"/><rect class="cls-1" x="0.5" y="264.35" width="20.35" height="20.35" transform="translate(21.35 549.05) rotate(180)"/><rect class="cls-1" x="81.91" y="244" width="20.35" height="20.35" transform="translate(184.18 508.34) rotate(180)"/><rect class="cls-1" x="61.56" y="244" width="20.35" height="20.35" transform="translate(143.47 508.34) rotate(180)"/><rect class="cls-1" x="41.21" y="244" width="20.35" height="20.35" transform="translate(102.76 508.34) rotate(180)"/><rect class="cls-1" x="20.85" y="244" width="20.35" height="20.35" transform="translate(62.06 508.34) rotate(180)"/><rect class="cls-1" x="0.5" y="244" width="20.35" height="20.35" transform="translate(21.35 508.34) rotate(180)"/><rect class="cls-1" x="81.91" y="223.64" width="20.35" height="20.35" transform="translate(184.18 467.64) rotate(180)"/><rect class="cls-1" x="61.56" y="223.64" width="20.35" height="20.35" transform="translate(143.47 467.64) rotate(180)"/><rect class="cls-1" x="41.21" y="223.64" width="20.35" height="20.35" transform="translate(102.76 467.64) rotate(180)"/><rect class="cls-1" x="20.85" y="223.64" width="20.35" height="20.35" transform="translate(62.06 467.64) rotate(180)"/><rect class="cls-1" x="0.5" y="223.64" width="20.35" height="20.35" transform="translate(21.35 467.64) rotate(180)"/><rect class="cls-1" x="81.91" y="203.29" width="20.35" height="20.35" transform="translate(184.18 426.93) rotate(180)"/><rect class="cls-1" x="61.56" y="203.29" width="20.35" height="20.35" transform="translate(143.47 426.93) rotate(180)"/><rect class="cls-1" x="41.21" y="203.29" width="20.35" height="20.35" transform="translate(102.76 426.93) rotate(180)"/><rect class="cls-1" x="20.85" y="203.29" width="20.35" height="20.35" transform="translate(62.06 426.93) rotate(180)"/><rect class="cls-1" x="0.5" y="203.29" width="20.35" height="20.35" transform="translate(21.35 426.93) rotate(180)"/></g></g></svg>