<svg xmlns="http://www.w3.org/2000/svg" viewBox="0 0 148.69 170.11"><defs><style>.cls-1{fill:none;}.cls-1,.cls-2,.cls-3,.cls-4,.cls-5{stroke:#000;stroke-miterlimit:10;stroke-width:5px;}.cls-2{fill:#f7931e;}.cls-3{fill:#fcee21;}.cls-4{fill:#fbb03b;}</style></defs><title>Asset 26</title><g id="Layer_2" data-name="Layer 2"><g id="Layer_1-2" data-name="Layer 1"><line class="cls-1" x1="69.37" y1="18.96" x2="69.37" y2="18.46"/><path class="cls-2" d="M69.36,82.45h-63c-15-41,17.57-61.87,31-54S48.33,74.19,69.36,82.45Z"/><path class="cls-3" d="M124.64,82.46c-30.27,40-55.27,125-55.28,63.5l0-.54s0-.08,0-.12a.83.83,0,0,1,0,.15V19C69.37-10.54,195.37-6.54,124.64,82.46Z"/><path class="cls-4" d="M69.36,145.45a.83.83,0,0,0,0-.15s0,.08,0,.12c0-36-49-29-63-63h63Z"/><polyline class="cls-1" points="69.33 145.42 69.36 145.45 69.36 145.46"/><circle class="cls-5" cx="121.37" cy="47.46" r="14"/></g></g></svg>