<svg xmlns="http://www.w3.org/2000/svg" viewBox="0 0 186.13 213.99"><defs><style>.cls-1{fill:#fcee21;}.cls-1,.cls-2{stroke:#000;stroke-miterlimit:10;stroke-width:5px;}.cls-2{fill:#fbb03b;}</style></defs><title>Asset 38</title><g id="Layer_2" data-name="Layer 2"><g id="Layer_1-2" data-name="Layer 1"><path class="cls-1" d="M180.54,32.76,151.48,61.82a15,15,0,1,0-15.67,15.66l-103,103.05a104.18,104.18,0,0,1-30.1-79.24A15,15,0,1,0,10.5,73.5a15.67,15.67,0,0,0-2.58.22,104.54,104.54,0,0,1,172.62-41Z"/><path class="cls-2" d="M182.64,179.11c-.57.6-1.15,1.19-1.74,1.78a103.85,103.85,0,0,1-22,16.84,14.77,14.77,0,0,0,.61-4.23,15,15,0,1,0-21.75,13.39,104.47,104.47,0,0,1-104.64-26l-.35-.36,75.66-75.65Z"/></g></g></svg>