<svg xmlns="http://www.w3.org/2000/svg" viewBox="0 0 1913.32 195.53"><defs><style>.cls-1{fill:#fff339;}</style></defs><title>Asset 9</title><g id="Layer_2" data-name="Layer 2"><g id="Layer_1-2" data-name="Layer 1"><path class="cls-1" d="M1405.89,0V.16H980.4V0H473V.16H0V177.64a17.75,17.75,0,0,0,16.84,17.88A17.48,17.48,0,0,0,35,178.06V122.21c0-11.66,9.14-21.51,20.8-21.83a21.39,21.39,0,0,1,22,21.39v9.48c0,12.75,10,23.52,22.73,23.86a23.38,23.38,0,0,0,24-23.37v-41c0-13,10.23-24.07,23.26-24.43A24,24,0,0,1,172.4,90.27V123a16.11,16.11,0,0,0,16.11,16.11h3.13A16.1,16.1,0,0,0,207.74,123V52.15A18.12,18.12,0,0,1,224.93,33.9a17.84,17.84,0,0,1,18.48,17.82V154.38a15.92,15.92,0,0,0,15.11,16.05,15.68,15.68,0,0,0,16.25-15.67v-85c0-10.62,8.27-19.67,18.88-20A19.59,19.59,0,0,1,314,69.33v8.38A19.59,19.59,0,0,0,333.55,97.3H334a19.59,19.59,0,0,0,19.59-19.59V67.84a15.57,15.57,0,1,1,31.13,0V123a18.43,18.43,0,1,0,36.85,0V94.87a19,19,0,0,1,38,0V100a23.91,23.91,0,0,0,47.82,0V73.54l.49,0c0-11.66,9.14-21.52,20.8-21.84a21.4,21.4,0,0,1,22,21.39v9.49c0,12.74,10,23.51,22.73,23.86a23.39,23.39,0,0,0,24-23.37v.62c0-13,10.22-24.07,23.26-24.43a23.93,23.93,0,0,1,24.61,23.93V116a16.11,16.11,0,0,0,16.11,16.11h3.13A16.11,16.11,0,0,0,680.71,116V45.11A18.11,18.11,0,0,1,697.9,26.86a17.84,17.84,0,0,1,18.48,17.82V147.34a15.93,15.93,0,0,0,15.11,16,15.68,15.68,0,0,0,16.25-15.67v-85c0-10.62,8.26-19.67,18.88-20a19.59,19.59,0,0,1,20.3,19.58v8.38a19.6,19.6,0,0,0,19.6,19.59H807a19.6,19.6,0,0,0,19.6-19.59V60.79a15.56,15.56,0,1,1,31.12,0V116a18.43,18.43,0,0,0,18.43,18.43h0A18.42,18.42,0,0,0,894.53,116V87.83a19,19,0,0,1,38.05,0l.34,0v89.83a17.75,17.75,0,0,0,16.84,17.88,17.48,17.48,0,0,0,18.11-17.46V122.21c0-11.66,9.14-21.51,20.8-21.83a21.39,21.39,0,0,1,22,21.39v9.48c0,12.75,10,23.52,22.73,23.86a23.38,23.38,0,0,0,24-23.37v-41c0-13,10.23-24.07,23.26-24.43a24,24,0,0,1,24.62,23.93V123a16.11,16.11,0,0,0,16.11,16.11h3.13A16.11,16.11,0,0,0,1140.67,123V52.15a18.12,18.12,0,0,1,17.18-18.25,17.83,17.83,0,0,1,18.48,17.82V154.38a15.93,15.93,0,0,0,15.11,16.05,15.69,15.69,0,0,0,16.26-15.67v-85c0-10.62,8.26-19.67,18.87-20a19.59,19.59,0,0,1,20.31,19.57v8.38a19.59,19.59,0,0,0,19.59,19.59h.45a19.59,19.59,0,0,0,19.59-19.59V67.84a15.57,15.57,0,1,1,31.13,0V123a18.43,18.43,0,1,0,36.85,0V94.87a19,19,0,1,1,38,0V100a23.91,23.91,0,1,0,47.82,0V73.54l.49,0c0-11.66,9.14-21.52,20.8-21.84a21.4,21.4,0,0,1,22,21.39v9.49c0,12.74,10,23.51,22.73,23.86a23.39,23.39,0,0,0,24-23.37v.62c0-13,10.22-24.07,23.26-24.43a23.93,23.93,0,0,1,24.61,23.93V116a16.11,16.11,0,0,0,16.11,16.11h3.13A16.11,16.11,0,0,0,1613.63,116V45.11a18.11,18.11,0,0,1,17.19-18.25,17.84,17.84,0,0,1,18.48,17.82V147.34a15.93,15.93,0,0,0,15.11,16,15.68,15.68,0,0,0,16.25-15.67v-85c0-10.62,8.26-19.67,18.88-20a19.6,19.6,0,0,1,20.31,19.58v8.38a19.59,19.59,0,0,0,19.59,19.59h.45a19.59,19.59,0,0,0,19.59-19.59V60.79a15.56,15.56,0,1,1,31.12,0V116A18.43,18.43,0,0,0,1809,134.38h0A18.43,18.43,0,0,0,1827.46,116V87.83a19,19,0,1,1,38,0V93a23.91,23.91,0,1,0,47.82,0V0Z"/></g></g></svg>