<svg xmlns="http://www.w3.org/2000/svg" viewBox="0 0 56.88 56.88"><title>Asset 34</title><g id="Layer_2" data-name="Layer 2"><g id="Layer_1-2" data-name="Layer 1"><path d="M53,14A31.16,31.16,0,0,1,31.14,25.85,31.2,31.2,0,0,1,42.85,4,28.42,28.42,0,0,0,14,3.88a31.17,31.17,0,0,1,11.83,22A31.17,31.17,0,0,1,3.88,14,28.42,28.42,0,0,0,4,42.85,31.2,31.2,0,0,1,25.85,31.14,31.16,31.16,0,0,1,14,53a28.42,28.42,0,0,0,28.82-.09,31.19,31.19,0,0,1-11.7-21.76,31.19,31.19,0,0,1,21.76,11.7A28.42,28.42,0,0,0,53,14Z"/></g></g></svg>