<svg xmlns="http://www.w3.org/2000/svg" viewBox="0 0 127.99 109.72"><defs><style>.cls-1{fill:#ed1e79;}.cls-2{fill:#ff7bac;}</style></defs><title>Asset 14</title><g id="Layer_2" data-name="Layer 2"><g id="Layer_1-2" data-name="Layer 1"><path d="M126.28,60.81,120,45.41c.22-.93.44-1.88.64-2.84a77,77,0,0,0,1.8-16.37c-.09-9.51-2.64-16.24-7.57-20C106.12-.47,98.34-.95,79.41,1A138.58,138.58,0,0,1,63.9,2c-3.81,0-7-.08-13.73-.34C31.33,1,24.27,1.31,16.88,4.88,9.11,8.65,4.79,15.65,4.06,25.69A56.11,56.11,0,0,0,5.89,43.34c.4,1.6.85,3.16,1.33,4.64.28.84.49,1.43.61,1.73l.33.72-.34-.15L1.35,64.82C-1.46,70.8.23,77.05,5.46,80a10.49,10.49,0,0,0,5.18,1.34,11.74,11.74,0,0,0,3.24-.46,12.33,12.33,0,0,0,7.36-5.52l1.13-1.73c.58.68,1.17,1.32,1.77,2L19.39,91.45a14.16,14.16,0,0,0,8,17.54l.12,0a12.94,12.94,0,0,0,16.59-8.54L48.78,91c4.5,1.86,11.73,2.15,15.72,2.15h1.18c2.44,0,9.56-.27,13.85-1.73l2.24,7a13,13,0,0,0,16.55,8.91l.12,0A14.11,14.11,0,0,0,106.7,90l-2.27-14.75c.85-.93,1.68-1.89,2.47-2.87l.59.94a10.85,10.85,0,0,0,7,5.12,10.28,10.28,0,0,0,2.4.28,11,11,0,0,0,6.15-1.9A12.13,12.13,0,0,0,126.28,60.81ZM17.56,73.06l-.08.14a8,8,0,0,1-4.77,3.53,6.64,6.64,0,0,1-5.09-.48c-4-2.26-3.74-6.57-2.31-9.61L10.4,55.19a93.64,93.64,0,0,0,9.12,14.9Zm86-3.47-1.4-9.12-4.3.66,4.56,29.71.08.34a9.75,9.75,0,0,1-5.6,12,8.61,8.61,0,0,1-10.94-6L77.54,71.06,73.39,72.4l4.8,14.9c-2,.68-6.35,1.42-12.57,1.51s-11.91-.56-14.91-1.69l6.45-13.06-3.91-1.93L40.12,98.73l-.14.38a8.55,8.55,0,0,1-9.63,6.14,5.8,5.8,0,1,0-3.76-1.77,9.83,9.83,0,0,1-3.05-10.71L32.79,62l-4.17-1.26-3,10A90.47,90.47,0,0,1,11.86,48.07c-.07-.18-.25-.7-.5-1.45-.45-1.38-.87-2.84-1.25-4.34A52.16,52.16,0,0,1,8.4,26c.62-8.5,4-14.13,10.38-17.21C25,5.81,30.79,5.3,50,6c6,.24,9.6.35,13.9.35A145.54,145.54,0,0,0,79.85,5.33C99,3.37,105,4.17,112.21,9.66c3.8,2.9,5.77,8.48,5.86,16.58a73,73,0,0,1-1.71,15.44c-.36,1.69-.76,3.36-1.18,4.93-.24.87-.42,1.48-.52,1.79A64.82,64.82,0,0,1,103.56,69.59Zm16.93,3.68a6.51,6.51,0,0,1-5.08.94,6.59,6.59,0,0,1-4.19-3.12l-1.53-2.46A70.08,70.08,0,0,0,118,52.08l4.31,10.53.16.31A7.79,7.79,0,0,1,120.49,73.27Z"/><path class="cls-1" d="M19.52,70.09l-2,3-.08.14a8,8,0,0,1-4.77,3.53,6.64,6.64,0,0,1-5.09-.48c-4-2.26-3.74-6.57-2.31-9.61L10.4,55.19A93.64,93.64,0,0,0,19.52,70.09Z"/><path class="cls-1" d="M120.49,73.27a6.51,6.51,0,0,1-5.08.94,6.59,6.59,0,0,1-4.19-3.12l-1.53-2.46A70.08,70.08,0,0,0,118,52.08l4.31,10.53.16.31A7.79,7.79,0,0,1,120.49,73.27Z"/><path class="cls-2" d="M112.21,9.66C105,4.17,99,3.37,79.85,5.33A145.54,145.54,0,0,1,63.9,6.39C59.6,6.39,56,6.28,50,6,30.79,5.3,25,5.81,18.78,8.8,12.42,11.88,9,17.51,8.4,26a52.16,52.16,0,0,0,1.71,16.27c.38,1.5.8,3,1.25,4.34.25.75.43,1.27.5,1.45A90.47,90.47,0,0,0,25.6,70.74l3-10L32.79,62,23.54,92.77a9.83,9.83,0,0,0,3.05,10.71,5.81,5.81,0,1,1,3.76,1.77A8.55,8.55,0,0,0,40,99.11l.14-.38,13.13-26.6,3.91,1.93L50.71,87.12c3,1.13,8.61,1.79,14.91,1.69S76.21,88,78.19,87.3l-4.8-14.9,4.15-1.34L86,97.22a8.61,8.61,0,0,0,10.94,6,9.75,9.75,0,0,0,5.6-12l-.08-.34L97.86,61.13l4.3-.66,1.4,9.12a64.82,64.82,0,0,0,11.1-21.19c.1-.31.28-.92.52-1.79.42-1.57.82-3.24,1.18-4.93a73,73,0,0,0,1.71-15.44C118,18.14,116,12.56,112.21,9.66ZM99.83,94.21A5.81,5.81,0,1,1,92.26,91,5.8,5.8,0,0,1,99.83,94.21Z"/><path d="M96.66,101.78a5.81,5.81,0,1,1,3.17-7.57A5.82,5.82,0,0,1,96.66,101.78Z"/></g></g></svg>