<svg xmlns="http://www.w3.org/2000/svg" viewBox="0 0 127.99 109.72"><title>Asset 13</title><g id="Layer_2" data-name="Layer 2"><g id="Layer_1-2" data-name="Layer 1"><path d="M126.28,60.81,120,45.41c.23-.93.45-1.88.65-2.84a77,77,0,0,0,1.8-16.37c-.1-9.51-2.64-16.24-7.57-20C106.12-.47,98.34-.95,79.41,1A138.58,138.58,0,0,1,63.9,2c-3.81,0-7-.08-13.73-.34C31.32,1,24.27,1.31,16.88,4.88,9.11,8.65,4.79,15.65,4.06,25.69A56.08,56.08,0,0,0,5.89,43.34c.4,1.61.85,3.17,1.33,4.64.28.84.49,1.43.61,1.74l.33.71-.34-.15L1.35,64.83C-1.46,70.8.22,77.06,5.46,80a10.39,10.39,0,0,0,5.18,1.34,11.74,11.74,0,0,0,3.24-.46,12.33,12.33,0,0,0,7.36-5.52l1.13-1.73c.58.68,1.17,1.32,1.77,2L19.39,91.45a14.15,14.15,0,0,0,8,17.54l.12,0a13,13,0,0,0,10.21-.79,13,13,0,0,0,6.37-7.75L48.78,91c4.5,1.86,11.73,2.15,15.72,2.15h1.18c2.44,0,9.56-.27,13.85-1.73l2.24,7a13,13,0,0,0,16.54,8.91l.13,0A14.1,14.1,0,0,0,106.7,90l-2.27-14.76c.85-.93,1.68-1.89,2.47-2.87l.59.94a10.82,10.82,0,0,0,7,5.12,10.28,10.28,0,0,0,2.4.28,11,11,0,0,0,6.15-1.9A12.13,12.13,0,0,0,126.28,60.81ZM17.56,73.06l-.08.14a8,8,0,0,1-4.77,3.53,6.67,6.67,0,0,1-5.1-.48c-4-2.26-3.73-6.57-2.3-9.61L10.4,55.2a94,94,0,0,0,9.12,14.89Zm84.6-12.59-4.3.66,4.56,29.71.08.34a9.75,9.75,0,0,1-5.6,12,8.61,8.61,0,0,1-10.94-6L77.54,71.06,73.39,72.4l4.8,14.91c-2,.68-6.35,1.42-12.57,1.51s-11.91-.57-14.91-1.7l6.45-13.06-3.91-1.93L40.12,98.73l-.14.38a8.55,8.55,0,0,1-9.63,6.14,5.8,5.8,0,1,0-3.76-1.77,9.83,9.83,0,0,1-3.05-10.71L32.79,62,28.62,60.7l-3,10A90.54,90.54,0,0,1,11.86,48.07c-.07-.18-.26-.7-.5-1.45-.45-1.37-.87-2.83-1.25-4.34A52.13,52.13,0,0,1,8.4,26c.62-8.5,4-14.13,10.38-17.21,6.17-3,12-3.5,31.22-2.75,6,.23,9.6.34,13.9.34A145.54,145.54,0,0,0,79.85,5.33C99,3.37,105,4.18,112.21,9.66c3.8,2.9,5.77,8.48,5.85,16.59a72.16,72.16,0,0,1-1.7,15.43c-.36,1.7-.76,3.36-1.18,4.93-.24.87-.42,1.48-.52,1.79a64.82,64.82,0,0,1-11.1,21.19Zm18.33,12.8a6.51,6.51,0,0,1-5.08.94,6.59,6.59,0,0,1-4.19-3.12l-1.53-2.46A70.08,70.08,0,0,0,118,52.08l4.31,10.54.16.3A7.79,7.79,0,0,1,120.49,73.27Z"/><path d="M92.26,91a5.81,5.81,0,1,0,7.57,3.18A5.81,5.81,0,0,0,92.26,91Z"/></g></g></svg>