<svg xmlns="http://www.w3.org/2000/svg" viewBox="0 0 87.89 68.36"><title>Asset 6</title><g id="Layer_2" data-name="Layer 2"><g id="Layer_1-2" data-name="Layer 1"><g id="Group-7"><path id="Fill-14" d="M63.82,54.63l-1.54-.88C55.18,49.6,42,41.88,24.29,55,15.48,61.52,5.54,56.19,0,52V64.21a33.65,33.65,0,0,0,15.4,4.15,24.76,24.76,0,0,0,15-5.07c12.19-9,20.2-4.37,26.64-.62l1.68,1c6.53,3.67,16.12,7.09,29.12.24V51.72c-12.77,9.24-20,5.2-24.06,2.91"/><path id="Fill-16" d="M63.82,30.79l-1.54-.89C55.18,25.76,42,18,24.29,31.14,15.48,37.68,5.54,32.35,0,28.19V40.37a33.64,33.64,0,0,0,15.4,4.14,24.69,24.69,0,0,0,15-5.07c12.19-9,20.2-4.37,26.64-.61.58.34,1.14.67,1.68,1,6.53,3.67,16.12,7.08,29.13.24V27.88c-12.78,9.24-20,5.19-24.07,2.91"/><path id="Fill-18" d="M63.82,6.94c-.49-.27-1-.57-1.54-.88C55.18,1.91,42-5.8,24.29,7.3,15.48,13.83,5.54,8.5,0,4.34V16.52a33.65,33.65,0,0,0,15.4,4.15,24.76,24.76,0,0,0,15-5.07c12.19-9,20.2-4.37,26.64-.62.58.35,1.14.67,1.68,1,6.53,3.67,16.12,7.09,29.13.24V4c-12.78,9.23-20,5.19-24.07,2.9"/></g></g></g></svg>