<svg xmlns="http://www.w3.org/2000/svg" xmlns:xlink="http://www.w3.org/1999/xlink" viewBox="0 0 86.97 78.31"><defs><style>.cls-1{fill:#fff;fill-rule:evenodd;}.cls-2{mask:url(#mask);}</style><mask id="mask" x="0" y="0" width="86.97" height="78.31" maskUnits="userSpaceOnUse"><g id="mask-2"><polygon id="path-1" class="cls-1" points="0 0 86.97 0 86.97 78.31 0 78.31 0 0"/></g></mask></defs><title>Asset 5</title><g id="Layer_2" data-name="Layer 2"><g id="Layer_1-2" data-name="Layer 1"><g id="Group-14"><g id="Group-13"><g class="cls-2"><path id="Fill-11" d="M76.7,0h-14a40.33,40.33,0,0,1,5.35,5.84,42.72,42.72,0,0,1,7,36.62c-6,23-26.79,26.62-38.12,25.11C24.29,65.89,9.72,57,10.45,37.42c.29-8,2.92-14.22,7.8-18.63a27.06,27.06,0,0,1,18.06-6.58c6.1.4,11.09,2.76,14.44,6.83a19.16,19.16,0,0,1,4,14.62A13.24,13.24,0,0,1,41.53,45.43c-9.06-.28-9.06-5.41-9.06-7.35,0-2.8,1.16-3.87,2-4.43a6.73,6.73,0,0,1,3-1V22.27a17.45,17.45,0,0,0-8.7,2.63c-4.37,2.83-6.79,7.51-6.79,13.18,0,10.6,7.34,17.41,19.16,17.76A23.81,23.81,0,0,0,65,35a29.57,29.57,0,0,0-6.25-22.57C53.65,6.17,45.91,2.4,37,1.81a37.51,37.51,0,0,0-25.72,9.24C4.32,17.33.43,26.31,0,37-.89,61.89,17.25,75.47,35.63,77.9a46.14,46.14,0,0,0,6.15.41c17.71,0,37.28-9.82,43.41-33.21A53.08,53.08,0,0,0,76.7,0"/></g></g></g></g></g></svg>